<?xml version="1.0" encoding="UTF-8" standalone="no"?>
<!-- Created with Inkscape (http://www.inkscape.org/) -->

<svg
   xmlns:dc="http://purl.org/dc/elements/1.1/"
   xmlns:cc="http://creativecommons.org/ns#"
   xmlns:rdf="http://www.w3.org/1999/02/22-rdf-syntax-ns#"
   xmlns:svg="http://www.w3.org/2000/svg"
   xmlns="http://www.w3.org/2000/svg"
   xmlns:sodipodi="http://sodipodi.sourceforge.net/DTD/sodipodi-0.dtd"
   xmlns:inkscape="http://www.inkscape.org/namespaces/inkscape"
   version="1.1"
   id="svg4485"
   xml:space="preserve"
   width="653.35956"
   height="62.951599"
   viewBox="0 0 653.35954 62.951599"
   sodipodi:docname="source_bots_purple_wristband.svg"
   inkscape:version="0.92.2 2405546, 2018-03-11"
   inkscape:export-filename="/home/andy/git/srd/art/source_bots_white.png"
   inkscape:export-xdpi="965.32001"
   inkscape:export-ydpi="965.32001"><metadata
     id="metadata4491"><rdf:RDF><cc:Work
         rdf:about=""><dc:format>image/svg+xml</dc:format><dc:type
           rdf:resource="http://purl.org/dc/dcmitype/StillImage" /><dc:title></dc:title></cc:Work></rdf:RDF></metadata><defs
     id="defs4489" /><sodipodi:namedview
     pagecolor="#ffffff"
     bordercolor="#666666"
     borderopacity="1"
     objecttolerance="10"
     gridtolerance="10"
     guidetolerance="10"
     inkscape:pageopacity="0"
     inkscape:pageshadow="2"
     inkscape:window-width="2556"
     inkscape:window-height="674"
     id="namedview4487"
     showgrid="false"
     fit-margin-top="0"
     fit-margin-left="0"
     fit-margin-right="0"
     fit-margin-bottom="0"
     inkscape:zoom="0.98480592"
     inkscape:cx="314.50261"
     inkscape:cy="-17.884824"
     inkscape:window-x="0"
     inkscape:window-y="1468"
     inkscape:window-maximized="0"
     inkscape:current-layer="g4493"
     inkscape:pagecheckerboard="true" /><g
     id="g4493"
     inkscape:groupmode="layer"
     inkscape:label="Source Bots"
     transform="matrix(1.3333333,0,0,-1.3333333,35.14681,171.08497)"><g
       aria-label="source"
       transform="matrix(1,0,0,-1,-0.30304058,-0.05466153)"
       style="font-variant:normal;font-weight:normal;font-stretch:normal;font-size:64.55780029px;font-family:Haettenschweiler;-inkscape-font-specification:Haettenschweiler;writing-mode:lr-tb;fill:#800080;fill-opacity:1;fill-rule:nonzero;stroke:none"
       id="text4497"><path
         d="m 51.956193,-101.30984 h 8.952352 v 7.7545 q 0,1.859819 1.513073,1.859819 1.513073,0 1.513073,-3.562027 0,-4.633787 -1.859819,-5.989252 -7.029487,-3.68811 -8.479516,-5.13814 -1.450028,-1.48155 -1.450028,-4.41313 v -4.91749 q 0,-7.72298 10.465424,-7.72298 10.181724,0 10.181724,7.40775 v 7.21863 h -8.763217 l 0.189134,-4.38161 q 0,-4.57075 -1.670686,-4.57075 -1.670685,0 -1.670685,2.86854 0,2.9631 0.725015,4.47618 0.756536,1.51307 8.258859,5.20119 3.120714,2.23808 3.120714,5.9262 v 5.484891 q 0,7.722979 -10.623037,7.722979 -10.40238,0 -10.40238,-7.407755 z"
         style="fill:#800080;fill-opacity:1"
         id="path4542"
         inkscape:connector-curvature="0" /><path
         d="m 74.65204,-93.807519 v -21.908041 q 0,-7.72298 10.686081,-7.72298 4.12943,0 7.250144,1.79677 3.152236,1.79678 3.152236,5.61098 v 22.538495 q 0,7.407755 -10.40238,7.407755 -10.686081,0 -10.686081,-7.722979 z m 12.104588,0.252179 v -22.4124 q 0,-1.79678 -1.544596,-1.79678 -1.576118,0 -1.576118,1.79678 v 22.4124 q 0,1.859819 1.576118,1.859819 1.544596,0 1.544596,-1.859819 z"
         style="fill:#800080;fill-opacity:1"
         id="path4544"
         inkscape:connector-curvature="0" /><path
         d="m 118.55942,-86.588898 h -8.95235 v -1.229372 q -1.73373,1.73373 -5.54794,1.73373 -2.64788,0 -4.602264,-1.386984 -1.922864,-1.418506 -1.922864,-3.688116 v -32.02672 h 8.952348 v 29.757109 q 0,1.670686 1.57612,1.670686 1.5446,0 1.5446,-1.607641 v -29.820154 h 8.95235 z"
         style="fill:#800080;fill-opacity:1"
         id="path4546"
         inkscape:connector-curvature="0" /><path
         d="m 141.82569,-108.0241 h -8.98387 v -7.94364 q 0,-1.67069 -1.5446,-1.67069 -1.54459,0 -1.54459,1.60764 v 29.441892 h -8.98387 v -36.597462 h 8.98387 v 1.22937 q 1.79677,-1.48155 5.54793,-1.48155 2.67941,0 4.60227,1.45003 1.92286,1.4185 1.92286,3.75116 z"
         style="fill:#800080;fill-opacity:1"
         id="path4548"
         inkscape:connector-curvature="0" /><path
         d="m 164.52457,-106.98387 h -8.95235 v -8.98387 q 0,-1.79678 -1.5446,-1.79678 -1.57612,0 -1.57612,1.79678 v 22.4124 q 0,1.859819 1.57612,1.859819 1.5446,0 1.5446,-1.859819 v -8.85778 h 8.95235 v 8.920825 q 0,7.407755 -10.37086,7.407755 -10.65456,0 -10.65456,-7.722979 v -21.908041 q 0,-7.72298 10.65456,-7.72298 10.37086,0 10.37086,7.40775 z"
         style="fill:#800080;fill-opacity:1"
         id="path4550"
         inkscape:connector-curvature="0" /><path
         d="m 187.53868,-102.0979 h -12.07307 v 8.54256 q 0,1.859819 1.57612,1.859819 1.5446,0 1.5446,-1.859819 v -7.37623 h 8.95235 v 7.439275 q 0,7.407755 -10.55999,7.407755 -10.46543,0 -10.46543,-7.722979 v -21.908041 q 0,-7.72298 10.46543,-7.72298 10.55999,0 10.55999,7.40775 z m -8.95235,-5.48489 v -8.38495 q 0,-1.79678 -1.5446,-1.79678 -1.57612,0 -1.57612,1.79678 v 8.38495 z"
         style="fill:#800080;fill-opacity:1"
         id="path4552"
         inkscape:connector-curvature="0" /></g><g
       aria-label="BOTS"
       transform="matrix(1,0,0,-1.0139251,-91.531951,0.23187394)"
       style="font-variant:normal;font-weight:normal;font-stretch:normal;font-size:53.7981987px;font-family:Haettenschweiler;-inkscape-font-specification:Haettenschweiler;writing-mode:lr-tb;fill:#800080;fill-opacity:1;fill-rule:nonzero;stroke:none"
       id="text4509"><path
         d="m 285.03898,-84.949641 v -36.181039 h 9.74567 q 3.49373,0 6.06806,1.53908 2.57432,1.51386 2.57432,4.86956 v 5.02093 q 0,3.80986 -4.83343,5.37418 5.09612,1.21108 5.09612,5.222791 v 7.01417 q 0,3.582779 -2.44298,5.374169 -2.41672,1.766159 -5.77911,1.766159 z m 10.58627,-23.464689 v -6.15633 q 0,-1.89231 -2.31165,-1.89231 v 9.96618 q 2.31165,0 2.31165,-1.91754 z m 0,16.90467 v -9.1588 q 0,-1.89232 -2.31165,-1.89232 v 12.968664 q 2.31165,0 2.31165,-1.917544 z"
         style="fill:#800080;fill-opacity:1;stroke-width:0.98004717"
         id="path4532"
         inkscape:connector-curvature="0" /><path
         d="m 305.40223,-91.131197 v -23.288083 q 0,-7.0394 9.50925,-7.0394 9.37791,0 9.37791,6.98895 v 23.288071 q 0,3.153855 -2.62687,4.869552 -2.60059,1.690467 -6.80358,1.690467 -9.45671,0 -9.45671,-6.509557 z m 10.79641,0.378462 v -24.650535 q 0,-1.08493 -1.3397,-1.08493 -1.39224,0 -1.39224,1.08493 v 24.650535 q 0,1.084926 1.39224,1.084926 1.3397,0 1.3397,-1.084926 z"
         style="fill:#800080;fill-opacity:1;stroke-width:0.98004717"
         id="path4534"
         inkscape:connector-curvature="0" /><path
         d="m 343.29044,-116.41251 h -4.62328 v 31.462869 h -8.27463 v -31.462869 h -4.62328 v -4.71817 h 17.52119 z"
         style="fill:#800080;fill-opacity:1;stroke-width:0.98004717"
         id="path4536"
         inkscape:connector-curvature="0" /><path
         d="m 344.83505,-99.432155 h 7.5391 v 8.300958 q 0,1.23631 1.54985,1.23631 1.49731,0 1.49731,-1.23631 v -4.289243 q 0,-1.96801 -2.73194,-4.61725 -5.28,-4.92001 -6.56716,-6.61048 -1.28716,-1.69047 -1.28716,-3.70893 v -4.06218 q 0,-7.0394 9.56178,-7.0394 8.56359,0 8.56359,6.40864 v 6.25724 h -7.53911 v -6.66094 q 0,-1.08492 -1.23462,-1.08492 -1.44478,0 -1.44478,2.09416 l 0.15761,2.34647 q 0,2.01846 2.78448,4.69293 5.17492,4.76863 6.56716,6.66094 1.41851,1.892323 1.41851,4.289255 v 4.617244 q 0,7.216021 -9.58806,7.216021 -9.24656,0 -9.24656,-6.560019 z"
         style="fill:#800080;fill-opacity:1;stroke-width:0.98004717"
         id="path4538"
         inkscape:connector-curvature="0" /></g><g
       id="g4770"
       style="fill:none;fill-opacity:1"
       transform="translate(-59.141844,47.57062)"><g
         transform="translate(84.100017,73.1387)"
         id="g4503"
         style="fill:none;fill-opacity:1"><path
           inkscape:connector-curvature="0"
           id="path4505"
           style="fill:none;fill-opacity:1;stroke:#800080;stroke-width:6.75;stroke-linecap:square;stroke-linejoin:miter;stroke-miterlimit:10;stroke-dasharray:none;stroke-opacity:1"
           d="M 0,0 V -32.458" /></g><g
         transform="matrix(0.67195871,0,0,1,86.623339,56.9097)"
         id="g4515"
         style="fill:none;fill-opacity:1"><path
           inkscape:connector-curvature="0"
           id="path4517"
           style="fill:none;fill-opacity:1;stroke:#800080;stroke-width:6.75;stroke-linecap:butt;stroke-linejoin:miter;stroke-miterlimit:10;stroke-dasharray:none;stroke-opacity:1"
           d="M 0,0 H 30.485" /></g></g><g
       id="g4782"
       style="fill:none;fill-opacity:1"
       transform="rotate(90,243.69523,145.47654)"><g
         transform="translate(192.1094,56.9097)"
         id="g4519"
         style="fill:none;fill-opacity:1"><path
           inkscape:connector-curvature="0"
           id="path4521"
           style="fill:none;fill-opacity:1;stroke:#800080;stroke-width:6.75;stroke-linecap:butt;stroke-linejoin:miter;stroke-miterlimit:10;stroke-dasharray:none;stroke-opacity:1"
           d="M 11.297,-6.6668926 V 9.953"
           sodipodi:nodetypes="cc" /></g><g
         transform="translate(206.9937,69.4629)"
         id="g4531"
         style="fill:#dcdcdc;fill-opacity:1"><path
           inkscape:connector-curvature="0"
           id="path4533"
           style="fill:#800080;fill-opacity:1;stroke:#800080;stroke-width:6.75;stroke-linecap:butt;stroke-linejoin:miter;stroke-miterlimit:10;stroke-dasharray:none;stroke-opacity:1"
           d="m 0,0 c 0,-2.03 -1.646,-3.676 -3.677,-3.676 -2.03,0 -3.676,1.646 -3.676,3.676 0,2.03 1.646,3.676 3.676,3.676 C -1.646,3.676 0,2.03 0,0 Z" /></g><g
         transform="matrix(1,0,0,1.6284665,192.1992,112.05085)"
         id="g4535"
         style="fill:none;fill-opacity:1"><path
           inkscape:connector-curvature="0"
           id="path4537"
           style="fill:none;fill-opacity:1;stroke:#800080;stroke-width:6.75;stroke-linecap:butt;stroke-linejoin:miter;stroke-miterlimit:10;stroke-dasharray:none;stroke-opacity:1"
           d="M 11.297,0 V -10.126"
           sodipodi:nodetypes="cc" /></g><g
         transform="translate(207.0835,92.3989)"
         id="g4539"
         style="fill:#800080;fill-opacity:1;stroke:#800080;stroke-opacity:1"><path
           inkscape:connector-curvature="0"
           id="path4541"
           style="fill:#800080;fill-opacity:1;stroke:#800080;stroke-width:6.75;stroke-linecap:butt;stroke-linejoin:miter;stroke-miterlimit:10;stroke-dasharray:none;stroke-opacity:1"
           d="m 0,0 c 0,2.119 -1.646,3.836 -3.677,3.836 -2.03,0 -3.676,-1.717 -3.676,-3.836 0,-2.119 1.646,-3.837 3.676,-3.837 C -1.646,-3.837 0,-2.119 0,0 Z" /></g><g
         transform="translate(194.7993,89.8164)"
         id="g4543"
         style="fill:none;fill-opacity:1"><path
           inkscape:connector-curvature="0"
           id="path4545"
           style="fill:none;fill-opacity:1;stroke:#800080;stroke-width:5.25;stroke-linecap:butt;stroke-linejoin:miter;stroke-miterlimit:10;stroke-dasharray:none;stroke-opacity:1"
           d="M 0,0 6.838,-17.086" /></g></g><path
       d="M -22.985108,104.03062 H 6.0658921 l -0.005,14.706 11.8409999,-14.706 -11.8409999,-13.807 0.005,13.807"
       style="fill:none;fill-opacity:1;stroke:#800080;stroke-width:6.75;stroke-linecap:square;stroke-linejoin:miter;stroke-miterlimit:10;stroke-dasharray:none;stroke-opacity:1"
       id="path4501"
       inkscape:connector-curvature="0"
       sodipodi:nodetypes="cccccc" /><path
       d="m 6.0658921,104.03062 -0.005,14.706 11.8409999,-14.706 -11.8409999,-13.807003 0.005,13.807003"
       style="fill:#800080;fill-opacity:1;stroke:#800080;stroke-width:6.75;stroke-linecap:square;stroke-linejoin:miter;stroke-miterlimit:10;stroke-dasharray:none;stroke-opacity:0"
       id="path4501-6"
       inkscape:connector-curvature="0"
       sodipodi:nodetypes="ccccc" /><g
       aria-label="BOTS"
       transform="matrix(1,0,0,-1,49.602167,-1.2659914)"
       style="font-variant:normal;font-weight:normal;font-stretch:normal;font-size:53.7981987px;font-family:Haettenschweiler;-inkscape-font-specification:Haettenschweiler;writing-mode:lr-tb;fill:#800080;fill-opacity:1;fill-rule:nonzero;stroke:none"
       id="text4509-6"><g
         aria-label="2018"
         style="font-style:normal;font-variant:normal;font-weight:normal;font-stretch:normal;font-size:30px;line-height:18.75px;font-family:Haettenschweiler;-inkscape-font-specification:Haettenschweiler;letter-spacing:0px;word-spacing:0px;fill:#000000;fill-opacity:1;stroke:none;stroke-width:0.75px;stroke-linecap:butt;stroke-linejoin:miter;stroke-opacity:1"
         id="text915"><path
           d="m 313.81525,-86.367401 h -19.66016 v -5.195313 l 9.67969,-17.773436 q 1.58594,-2.89844 1.58594,-7.92969 0,-2.625 -1.75,-2.625 -1.80469,0 -1.80469,1.64063 v 6.72656 h -7.71094 v -6.83594 q 0,-7.57422 9.73438,-7.57422 6.01562,0 7.95703,2.78907 1.96875,2.76171 1.96875,9.10546 0,2.48829 -0.84766,4.10157 l -9.67969,18.539059 h 10.52735 z"
           style="font-size:56px;line-height:27.75px;fill:#800080;stroke-width:0.75px"
           id="path4675"
           inkscape:connector-curvature="0" /><path
           d="m 315.37384,-93.06662 v -25.23828 q 0,-7.62891 10.14453,-7.62891 9.95313,0 9.95313,7.57422 v 25.238283 q 0,3.390625 -2.81641,5.25 -2.78906,1.859375 -7.19141,1.859375 -4.53906,0 -7.32812,-1.832032 -2.76172,-1.832031 -2.76172,-5.222656 z m 11.48438,0.410156 v -26.714846 q 0,-1.17578 -1.39454,-1.17578 -1.47656,0 -1.47656,1.17578 v 26.714846 q 0,1.175782 1.47656,1.175782 1.39454,0 1.39454,-1.175782 z"
           style="font-size:56px;line-height:27.75px;fill:#800080;stroke-width:0.75px"
           id="path4677"
           inkscape:connector-curvature="0" /><path
           d="m 349.034,-86.367401 h -8.61328 v -28.738279 h -3.3086 v -5.71485 q 1.88672,0 3.17188,-1.61328 1.3125,-1.61328 1.3125,-3.14453 h 7.4375 z"
           style="font-size:56px;line-height:27.75px;fill:#800080;stroke-width:0.75px"
           id="path4679"
           inkscape:connector-curvature="0" /><path
           d="m 355.29572,-107.55881 q -4.32032,-1.33984 -4.32032,-7.32812 v -4.10156 q 0,-6.94532 9.625,-6.94532 3.85547,0 6.72657,1.66797 2.87109,1.66797 2.87109,5.27735 v 4.10156 q 0,5.98828 -4.32031,7.32812 4.53906,1.09375 4.53906,6.04297 v 8.066408 q 0,7.4375 -9.87109,7.4375 -9.78907,0 -9.78907,-7.4375 v -8.066408 q 0,-4.97656 4.53907,-6.04297 z m 6.72656,-3.63672 v -8.17578 q 0,-1.17578 -1.42188,-1.17578 -1.44922,0 -1.44922,1.17578 v 8.17578 q 0,1.17579 1.44922,1.17579 1.42188,0 1.42188,-1.17579 z m 0,18.539066 v -11.429686 q 0,-1.17578 -1.42188,-1.17578 -1.44922,0 -1.44922,1.17578 v 11.429686 q 0,1.175782 1.44922,1.175782 1.42188,0 1.42188,-1.175782 z"
           style="font-size:56px;line-height:27.75px;fill:#800080;stroke-width:0.75px"
           id="path4681"
           inkscape:connector-curvature="0" /></g></g><path
       inkscape:connector-curvature="0"
       id="path4517-6"
       style="fill:none;fill-opacity:1;stroke:#800080;stroke-width:6.75;stroke-linecap:butt;stroke-linejoin:miter;stroke-miterlimit:10;stroke-dasharray:none;stroke-opacity:1"
       d="m 422.56816,105.18771 h 41.09142"
       sodipodi:nodetypes="cc" /></g></svg>